<?xml version="1.0" encoding="UTF-8" standalone="no"?>
<svg
   xmlns:dc="http://purl.org/dc/elements/1.1/"
   xmlns:cc="http://creativecommons.org/ns#"
   xmlns:rdf="http://www.w3.org/1999/02/22-rdf-syntax-ns#"
   xmlns:svg="http://www.w3.org/2000/svg"
   xmlns="http://www.w3.org/2000/svg"
   xmlns:sodipodi="http://sodipodi.sourceforge.net/DTD/sodipodi-0.dtd"
   xmlns:inkscape="http://www.inkscape.org/namespaces/inkscape"
   inkscape:export-ydpi="192"
   inkscape:export-xdpi="192"
   inkscape:export-filename="/home/easymodo/general32@2x.png"
   inkscape:version="1.0 (4035a4fb49, 2020-05-01)"
   sodipodi:docname="general.svg"
   id="svg8"
   version="1.1"
   viewBox="0 0 32 32"
   height="32"
   width="32">
  <defs
     id="defs2" />
  <sodipodi:namedview
     inkscape:document-rotation="0"
     inkscape:window-maximized="1"
     inkscape:window-y="0"
     inkscape:window-x="50"
     inkscape:window-height="1046"
     inkscape:window-width="1870"
     inkscape:showpageshadow="false"
     units="px"
     showgrid="false"
     inkscape:current-layer="layer1"
     inkscape:document-units="px"
     inkscape:cy="12.72434"
     inkscape:cx="8.2042961"
     inkscape:zoom="11.313709"
     inkscape:pageshadow="2"
     inkscape:pageopacity="0.0"
     borderopacity="1.0"
     bordercolor="#666666"
     pagecolor="#ffffff"
     id="base">
    <inkscape:grid
       id="grid834"
       type="xygrid" />
  </sodipodi:namedview>
  <metadata
     id="metadata5">
    <rdf:RDF>
      <cc:Work
         rdf:about="">
        <dc:format>image/svg+xml</dc:format>
        <dc:type
           rdf:resource="http://purl.org/dc/dcmitype/StillImage" />
        <dc:title />
      </cc:Work>
    </rdf:RDF>
  </metadata>
  <g
     transform="translate(0,-288.53332)"
     id="layer1"
     inkscape:groupmode="layer"
     inkscape:label="Layer 1">
    <path
       inkscape:export-ydpi="90"
       inkscape:export-xdpi="90"
       inkscape:export-filename="/home/easymodo/coding/qimgv/qimgv/res/icons/light/settings/general32.png"
       inkscape:connector-curvature="0"
       id="rect97"
       transform="translate(0,288.53332)"
       d="m 13,2 -0.9375,4.6875 h 7.875 L 19,2 H 16 Z M 12.037109,25.1875 13,30 h 3 3 l 0.962891,-4.8125 z"
       style="display:inline;fill:#c6c6c7;fill-opacity:1" />
    <path
       inkscape:export-ydpi="90"
       inkscape:export-xdpi="90"
       inkscape:export-filename="/home/easymodo/coding/qimgv/qimgv/res/icons/light/settings/general32.png"
       style="display:inline;fill:#c6c6c7;fill-opacity:1"
       d="m 2.3756443,300.1314 3.5907441,3.15565 3.9375,-6.81996 -4.5282441,-1.53185 -1.5,2.59808 z m 19.5995187,12.42763 4.649193,1.57237 1.5,-2.59808 1.5,-2.59808 -3.686302,-3.24013 z"
       id="path152"
       inkscape:connector-curvature="0" />
    <path
       inkscape:export-ydpi="90"
       inkscape:export-xdpi="90"
       inkscape:export-filename="/home/easymodo/coding/qimgv/qimgv/res/icons/light/settings/general32.png"
       inkscape:connector-curvature="0"
       id="path154"
       d="m 5.3756477,314.1314 4.5282451,-1.53185 -3.9375086,-6.81996 -3.5907431,3.15565 1.5000033,2.59808 z m 20.5624023,-10.75987 3.686309,-3.24013 -1.500003,-2.59808 -1.500003,-2.59808 -4.649186,1.57237 z"
       style="display:inline;fill:#c6c6c7;fill-opacity:1" />
    <path
       inkscape:export-ydpi="90"
       inkscape:export-xdpi="90"
       inkscape:export-filename="/home/easymodo/coding/qimgv/qimgv/res/icons/light/settings/general32.png"
       inkscape:connector-curvature="0"
       id="ellipse111"
       transform="translate(0,288.53332)"
       d="M 16,5 A 11.000002,11 0 0 0 5,16 11.000002,11 0 0 0 16,27 11.000002,11 0 0 0 27,16 11.000002,11 0 0 0 16,5 Z m 0,4.5 A 6.5,6.5 0 0 1 22.5,16 6.5,6.5 0 0 1 16,22.5 6.5,6.5 0 0 1 9.5,16 6.5,6.5 0 0 1 16,9.5 Z"
       style="display:inline;fill:#c6c6c7;stroke-width:1.0999999;fill-opacity:1" />
  </g>
</svg>
