<?xml version="1.0" encoding="UTF-8" standalone="no"?>
<svg
   inkscape:export-ydpi="96"
   inkscape:export-xdpi="96"
   inkscape:export-filename="../advanced.png"
   inkscape:version="1.2.1 (9c6d41e410, 2022-07-14)"
   sodipodi:docname="general.svg"
   id="svg8"
   version="1.1"
   viewBox="0 0 48 48"
   height="48"
   width="48"
   xmlns:inkscape="http://www.inkscape.org/namespaces/inkscape"
   xmlns:sodipodi="http://sodipodi.sourceforge.net/DTD/sodipodi-0.dtd"
   xmlns="http://www.w3.org/2000/svg"
   xmlns:svg="http://www.w3.org/2000/svg"
   xmlns:rdf="http://www.w3.org/1999/02/22-rdf-syntax-ns#"
   xmlns:cc="http://creativecommons.org/ns#"
   xmlns:dc="http://purl.org/dc/elements/1.1/">
  <defs
     id="defs2" />
  <sodipodi:namedview
     inkscape:document-rotation="0"
     inkscape:window-maximized="1"
     inkscape:window-y="0"
     inkscape:window-x="0"
     inkscape:window-height="1119"
     inkscape:window-width="1920"
     inkscape:showpageshadow="false"
     units="px"
     showgrid="false"
     inkscape:current-layer="layer1"
     inkscape:document-units="px"
     inkscape:cy="26.428116"
     inkscape:cx="10.69499"
     inkscape:zoom="5.6568542"
     inkscape:pageshadow="2"
     inkscape:pageopacity="0.0"
     borderopacity="1.0"
     bordercolor="#666666"
     pagecolor="#ffffff"
     id="base"
     inkscape:pagecheckerboard="0"
     inkscape:deskcolor="#d1d1d1">
    <inkscape:grid
       id="grid834"
       type="xygrid"
       originx="0"
       originy="0" />
  </sodipodi:namedview>
  <metadata
     id="metadata5">
    <rdf:RDF>
      <cc:Work
         rdf:about="">
        <dc:format>image/svg+xml</dc:format>
        <dc:type
           rdf:resource="http://purl.org/dc/dcmitype/StillImage" />
      </cc:Work>
    </rdf:RDF>
  </metadata>
  <g
     transform="translate(0,-288.53332)"
     id="layer1"
     inkscape:groupmode="layer"
     inkscape:label="Layer 1">
    <path
       inkscape:export-ydpi="90"
       inkscape:export-xdpi="90"
       inkscape:export-filename="/home/easymodo/coding/qimgv/qimgv/res/icons/light/settings/general32.png"
       inkscape:connector-curvature="0"
       id="rect97"
       d="m 21.214286,299.53332 -0.870536,4.35269 h 7.3125 l -0.870536,-4.35269 H 24 Z m -0.894113,21.53125 0.894113,4.46875 H 24 26.785714 l 0.894113,-4.46875 z"
       style="display:inline;fill:#4d4d4d;fill-opacity:1;stroke-width:0.928571" />
    <path
       inkscape:export-ydpi="90"
       inkscape:export-xdpi="90"
       inkscape:export-filename="/home/easymodo/coding/qimgv/qimgv/res/icons/light/settings/general32.png"
       style="display:inline;fill:#4d4d4d;fill-opacity:1;stroke-width:0.928571"
       d="m 11.348812,308.44582 3.334263,2.93025 3.65625,-6.33282 -4.204798,-1.42243 -1.392858,2.4125 z m 18.199554,11.53995 4.317107,1.46005 1.392858,-2.4125 1.392857,-2.4125 -3.422995,-3.0087 z"
       id="path152"
       inkscape:connector-curvature="0" />
    <path
       inkscape:export-ydpi="90"
       inkscape:export-xdpi="90"
       inkscape:export-filename="/home/easymodo/coding/qimgv/qimgv/res/icons/light/settings/general32.png"
       inkscape:connector-curvature="0"
       id="path154"
       d="m 14.13453,321.44582 4.204799,-1.42243 -3.656259,-6.33282 -3.334261,2.93025 1.39286,2.4125 z m 19.093659,-9.9913 3.423002,-3.0087 -1.39286,-2.4125 -1.39286,-2.4125 -4.317102,1.46005 z"
       style="display:inline;fill:#4d4d4d;fill-opacity:1;stroke-width:0.928571" />
    <path
       inkscape:export-ydpi="90"
       inkscape:export-xdpi="90"
       inkscape:export-filename="/home/easymodo/coding/qimgv/qimgv/res/icons/light/settings/general32.png"
       inkscape:connector-curvature="0"
       id="ellipse111"
       d="m 84.503141,283.04395 a 11.000002,11 0 0 0 -11,11 11.000002,11 0 0 0 11,11 11.000002,11 0 0 0 11,-11 11.000002,11 0 0 0 -11,-11 z m 0,4.5 a 6.5000001,6.5000001 0 0 1 6.5,6.5 6.5000001,6.5000001 0 0 1 -6.5,6.5 6.5000001,6.5000001 0 0 1 -6.5,-6.5 6.5000001,6.5000001 0 0 1 6.5,-6.5 z"
       style="display:inline;fill:#333333;fill-opacity:1;stroke-width:1.1" />
    <path
       id="path328"
       style="fill:#333333;stroke-width:1.60552"
       d="m 63.555925,265.44317 a 9.6304975,9.6304975 0 0 0 -9.630302,9.6303 9.6304975,9.6304975 0 0 0 9.630302,9.6303 9.6304975,9.6304975 0 0 0 9.630302,-9.6303 9.6304975,9.6304975 0 0 0 -9.630302,-9.6303 z m 0,4.52316 a 5.1078141,5.1078141 0 0 1 5.107143,5.10714 5.1078141,5.1078141 0 0 1 -5.107143,5.10714 5.1078141,5.1078141 0 0 1 -5.107143,-5.10714 5.1078141,5.1078141 0 0 1 5.107143,-5.10714 z" />
    <path
       id="path512"
       style="fill:#4d4d4d;stroke-width:1.01565"
       d="M 24,302.31066 A 10.222789,10.222789 0 0 0 13.777344,312.53332 10.222789,10.222789 0 0 0 24,322.75598 10.222789,10.222789 0 0 0 34.222656,312.53332 10.222789,10.222789 0 0 0 24,302.31066 Z m 0,5.64258 a 4.5805507,4.5805507 0 0 1 4.580078,4.58008 A 4.5805507,4.5805507 0 0 1 24,317.1134 4.5805507,4.5805507 0 0 1 19.419922,312.53332 4.5805507,4.5805507 0 0 1 24,307.95324 Z" />
    <rect
       style="fill:#ff6600"
       id="rect689"
       width="48.046711"
       height="47.912609"
       x="-56.488014"
       y="261.01611" />
  </g>
</svg>
