<?xml version="1.0" encoding="UTF-8" standalone="no"?>
<svg
   xmlns:dc="http://purl.org/dc/elements/1.1/"
   xmlns:cc="http://creativecommons.org/ns#"
   xmlns:rdf="http://www.w3.org/1999/02/22-rdf-syntax-ns#"
   xmlns:svg="http://www.w3.org/2000/svg"
   xmlns="http://www.w3.org/2000/svg"
   xmlns:sodipodi="http://sodipodi.sourceforge.net/DTD/sodipodi-0.dtd"
   xmlns:inkscape="http://www.inkscape.org/namespaces/inkscape"
   inkscape:export-ydpi="192"
   inkscape:export-xdpi="192"
   inkscape:export-filename="/home/easymodo/about32@2x.png"
   inkscape:version="1.0 (4035a4fb49, 2020-05-01)"
   sodipodi:docname="about.svg"
   id="svg8"
   version="1.1"
   viewBox="0 0 32 32"
   height="32"
   width="32">
  <defs
     id="defs2" />
  <sodipodi:namedview
     inkscape:window-maximized="1"
     inkscape:window-y="0"
     inkscape:window-x="50"
     inkscape:window-height="1046"
     inkscape:window-width="1870"
     inkscape:document-rotation="0"
     inkscape:showpageshadow="false"
     units="px"
     showgrid="true"
     inkscape:current-layer="layer1"
     inkscape:document-units="px"
     inkscape:cy="5.8713546"
     inkscape:cx="1.5036584"
     inkscape:zoom="11.237793"
     inkscape:pageshadow="2"
     inkscape:pageopacity="0.0"
     borderopacity="1.0"
     bordercolor="#666666"
     pagecolor="#ffffff"
     id="base">
    <inkscape:grid
       id="grid834"
       type="xygrid" />
  </sodipodi:namedview>
  <metadata
     id="metadata5">
    <rdf:RDF>
      <cc:Work
         rdf:about="">
        <dc:format>image/svg+xml</dc:format>
        <dc:type
           rdf:resource="http://purl.org/dc/dcmitype/StillImage" />
        <dc:title />
      </cc:Work>
    </rdf:RDF>
  </metadata>
  <g
     transform="translate(0,-288.53332)"
     id="layer1"
     inkscape:groupmode="layer"
     inkscape:label="Layer 1">
    <path
       inkscape:connector-curvature="0"
       id="path1091"
       d="m -17,286.53332 v 21.21321 a 3.5355406,3.5355406 0 0 0 3.535535,3.53553 3.5355406,3.5355406 0 0 0 3.535533,-3.53553 v -21.21321 z m 2.474874,20.15255 a 1.4995408,1.4995408 0 0 1 2.12132,0 1.4995408,1.4995408 0 0 1 0,2.12132 1.4995408,1.4995408 0 0 1 -2.121321,0 1.4995408,1.4995408 0 0 1 10e-7,-2.12132 z"
       style="display:inline;fill:#4d4d4d;fill-opacity:1;fill-rule:evenodd;stroke:none;stroke-width:1px;stroke-linecap:butt;stroke-linejoin:miter;stroke-opacity:1" />
    <path
       inkscape:connector-curvature="0"
       id="path1025"
       d="m -12.166456,268.15779 a 7.5027133,7.5003975 0 0 0 -5.368759,2.30541 7.5027133,7.5003975 0 0 0 0.214307,10.60425 7.5027133,7.5003975 0 0 0 10.607479,-0.21432 7.5027133,7.5003975 0 0 0 1.895827,-6.87413 L -9.310811,278.47088 -14,277.53332 l -0.937842,-4.68776 4.491374,-4.49002 a 7.5027133,7.5003975 0 0 0 -1.719988,-0.19775 z"
       style="display:inline;opacity:1;fill:#4d4d4d;fill-opacity:1;fill-rule:nonzero;stroke:none;stroke-width:2.46208;stroke-miterlimit:4;stroke-dasharray:none;stroke-dashoffset:0;stroke-opacity:1" />
    <path
       inkscape:label="x-line1"
       inkscape:connector-curvature="0"
       id="path1069"
       d="m 32,304.53332 -16,-16 v 0 0 0"
       style="display:none;opacity:0.676;fill:none;fill-rule:evenodd;stroke:#5967df;stroke-width:0.1;stroke-linecap:butt;stroke-linejoin:miter;stroke-miterlimit:4;stroke-dasharray:none;stroke-opacity:1" />
    <path
       sodipodi:nodetypes="ccccc"
       inkscape:label="x-line-2"
       inkscape:connector-curvature="0"
       id="path1069-2"
       d="m 0,320.53332 32,-32 v 0 0 0"
       style="display:none;opacity:0.676;fill:none;fill-rule:evenodd;stroke:#5967df;stroke-width:0.1;stroke-linecap:butt;stroke-linejoin:miter;stroke-miterlimit:4;stroke-dasharray:none;stroke-opacity:1" />
    <text
       inkscape:label="?--mark"
       id="text841"
       y="312.97626"
       x="9.830266"
       style="font-style:normal;font-variant:normal;font-weight:normal;font-stretch:normal;font-size:64px;line-height:125%;font-family:'MS UI Gothic';-inkscape-font-specification:'MS UI Gothic';letter-spacing:0px;word-spacing:0px;display:inline;fill:#c6c6c7;fill-opacity:1;stroke:none;stroke-width:1px;stroke-linecap:butt;stroke-linejoin:miter;stroke-opacity:1;"
       xml:space="preserve"><tspan
         style="font-style:normal;font-variant:normal;font-weight:500;font-stretch:normal;font-size:24px;font-family:'SF Pro Text';-inkscape-font-specification:'SF Pro Text Medium';fill:#c6c6c7;fill-opacity:1;"
         y="312.97626"
         x="9.830266"
         id="tspan839"
         sodipodi:role="line">?</tspan></text>
    <path
       inkscape:connector-curvature="0"
       id="path846"
       transform="translate(0,288.53332)"
       d="M 16,2 A 14,14 0 0 0 2,16 14,14 0 0 0 16,30 14,14 0 0 0 30,16 14,14 0 0 0 16,2 Z m 0,3 A 11,11 0 0 1 27,16 11,11 0 0 1 16,27 11,11 0 0 1 5,16 11,11 0 0 1 16,5 Z"
       style="display:inline;opacity:1;fill:#c6c6c7;fill-opacity:1;fill-rule:nonzero;stroke:none;stroke-width:0.0838955;stroke-miterlimit:4;stroke-dasharray:none;stroke-dashoffset:0;stroke-opacity:1" />
  </g>
</svg>
