<?xml version="1.0" encoding="UTF-8" standalone="no"?>
<!-- Created with Inkscape (http://www.inkscape.org/) -->

<svg
   xmlns:dc="http://purl.org/dc/elements/1.1/"
   xmlns:cc="http://creativecommons.org/ns#"
   xmlns:rdf="http://www.w3.org/1999/02/22-rdf-syntax-ns#"
   xmlns:svg="http://www.w3.org/2000/svg"
   xmlns="http://www.w3.org/2000/svg"
   xmlns:sodipodi="http://sodipodi.sourceforge.net/DTD/sodipodi-0.dtd"
   xmlns:inkscape="http://www.inkscape.org/namespaces/inkscape"
   width="32"
   height="32"
   viewBox="0 0 32 32"
   version="1.1"
   id="svg8"
   sodipodi:docname="advanced.svg"
   inkscape:version="0.92.4 5da689c313, 2019-01-14"
   inkscape:export-filename="/home/mitcher/bitmap9.png"
   inkscape:export-xdpi="192"
   inkscape:export-ydpi="192">
  <defs
     id="defs2" />
  <sodipodi:namedview
     id="base"
     pagecolor="#ffffff"
     bordercolor="#666666"
     borderopacity="1.0"
     inkscape:pageopacity="0.0"
     inkscape:pageshadow="2"
     inkscape:zoom="11.313708"
     inkscape:cx="-3.4206366"
     inkscape:cy="14.507759"
     inkscape:document-units="px"
     inkscape:current-layer="layer1"
     showgrid="true"
     units="px"
     inkscape:showpageshadow="false"
     inkscape:window-width="2560"
     inkscape:window-height="1365"
     inkscape:window-x="1920"
     inkscape:window-y="240"
     inkscape:window-maximized="1">
    <inkscape:grid
       type="xygrid"
       id="grid834" />
  </sodipodi:namedview>
  <metadata
     id="metadata5">
    <rdf:RDF>
      <cc:Work
         rdf:about="">
        <dc:format>image/svg+xml</dc:format>
        <dc:type
           rdf:resource="http://purl.org/dc/dcmitype/StillImage" />
        <dc:title />
      </cc:Work>
    </rdf:RDF>
  </metadata>
  <g
     inkscape:label="Layer 1"
     inkscape:groupmode="layer"
     id="layer1"
     transform="translate(0,-288.53332)">
    <path
       style="fill:#4d4d4d;fill-opacity:1;fill-rule:evenodd;stroke:none;stroke-width:1px;stroke-linecap:butt;stroke-linejoin:miter;stroke-opacity:1"
       d="m 18.035531,297.49779 -14.9999999,15 a 3.5355406,3.5355406 0 0 0 0,5 3.5355406,3.5355406 0 0 0 5,0 l 14.9999999,-15 z m -12.4999999,16 a 1.4995408,1.4995408 0 0 1 1.5,1.5 1.4995408,1.4995408 0 0 1 -1.5,1.5 1.4995408,1.4995408 0 0 1 -1.5,-1.5 1.4995408,1.4995408 0 0 1 1.5,-1.5 z"
       id="path1091"
       inkscape:connector-curvature="0" />
    <path
       style="display:inline;opacity:1;fill:#4d4d4d;fill-opacity:1;fill-rule:nonzero;stroke:none;stroke-width:2.46207976;stroke-miterlimit:4;stroke-dasharray:none;stroke-dashoffset:0;stroke-opacity:1"
       d="m 22.459782,290.53332 a 7.5027133,7.5003975 0 0 0 -5.368759,2.30541 7.5027133,7.5003975 0 0 0 0.214307,10.60425 7.5027133,7.5003975 0 0 0 10.607479,-0.21432 7.5027133,7.5003975 0 0 0 1.895827,-6.87413 l -4.493209,4.49188 -4.689189,-0.93756 -0.937842,-4.68776 4.491374,-4.49002 a 7.5027133,7.5003975 0 0 0 -1.719988,-0.19775 z"
       id="path1025"
       inkscape:connector-curvature="0" />
    <path
       style="display:none;opacity:0.67600002;fill:none;fill-rule:evenodd;stroke:#5967df;stroke-width:0.1;stroke-linecap:butt;stroke-linejoin:miter;stroke-miterlimit:4;stroke-dasharray:none;stroke-opacity:1"
       d="m 32,304.53332 -16,-16 v 0 0 0"
       id="path1069"
       inkscape:connector-curvature="0"
       inkscape:label="x-line1" />
    <path
       style="display:none;opacity:0.67600002;fill:none;fill-rule:evenodd;stroke:#5967df;stroke-width:0.1;stroke-linecap:butt;stroke-linejoin:miter;stroke-miterlimit:4;stroke-dasharray:none;stroke-opacity:1"
       d="m 0,320.53332 32,-32 v 0 0 0"
       id="path1069-2"
       inkscape:connector-curvature="0"
       inkscape:label="x-line-2"
       sodipodi:nodetypes="ccccc" />
  </g>
</svg>
