<?xml version="1.0" encoding="UTF-8" standalone="no"?>
<!-- Created with Inkscape (http://www.inkscape.org/) -->

<svg
   xmlns:dc="http://purl.org/dc/elements/1.1/"
   xmlns:cc="http://creativecommons.org/ns#"
   xmlns:rdf="http://www.w3.org/1999/02/22-rdf-syntax-ns#"
   xmlns:svg="http://www.w3.org/2000/svg"
   xmlns="http://www.w3.org/2000/svg"
   xmlns:sodipodi="http://sodipodi.sourceforge.net/DTD/sodipodi-0.dtd"
   xmlns:inkscape="http://www.inkscape.org/namespaces/inkscape"
   width="32"
   height="32"
   viewBox="0 0 32 32"
   version="1.1"
   id="svg8"
   sodipodi:docname="appearance.svg"
   inkscape:version="0.92.4 5da689c313, 2019-01-14"
   inkscape:export-filename="/home/mitcher/bitmap8.png"
   inkscape:export-xdpi="96"
   inkscape:export-ydpi="96">
  <defs
     id="defs2" />
  <sodipodi:namedview
     id="base"
     pagecolor="#ffffff"
     bordercolor="#666666"
     borderopacity="1.0"
     inkscape:pageopacity="0.0"
     inkscape:pageshadow="2"
     inkscape:zoom="16"
     inkscape:cx="12.747937"
     inkscape:cy="13.901121"
     inkscape:document-units="px"
     inkscape:current-layer="layer1"
     showgrid="true"
     units="px"
     inkscape:showpageshadow="false"
     inkscape:window-width="2560"
     inkscape:window-height="1365"
     inkscape:window-x="1920"
     inkscape:window-y="240"
     inkscape:window-maximized="1">
    <inkscape:grid
       type="xygrid"
       id="grid834" />
  </sodipodi:namedview>
  <metadata
     id="metadata5">
    <rdf:RDF>
      <cc:Work
         rdf:about="">
        <dc:format>image/svg+xml</dc:format>
        <dc:type
           rdf:resource="http://purl.org/dc/dcmitype/StillImage" />
        <dc:title></dc:title>
      </cc:Work>
    </rdf:RDF>
  </metadata>
  <g
     inkscape:label="Layer 1"
     inkscape:groupmode="layer"
     id="layer1"
     transform="translate(0,-288.53332)">
    <path
       style="fill:#4d4d4d;fill-opacity:1;fill-rule:evenodd;stroke:none;stroke-width:1px;stroke-linecap:butt;stroke-linejoin:miter;stroke-opacity:1"
       d="m 26,2 a 4,4 0 0 0 -2.826172,1.171875 h -0.002 l -0.01758,0.021484 A 4,4 0 0 0 22.617188,3.875 L 17,11 C 17,11 13,8 11.5,9.5 L 11,10 22,21 22.5,20.5 C 24,19 21,15 21,15 l 7.105469,-5.6035156 a 4,4 0 0 0 0.710937,-0.5585938 l 0.01172,-0.00977 v -0.00195 A 4,4 0 0 0 30,6 4,4 0 0 0 26,2 Z m 0,2 a 2,2 0 0 1 2,2 2,2 0 0 1 -2,2 2,2 0 0 1 -2,-2 2,2 0 0 1 2,-2 z m -16,7 -8,8 2,2 5,-5 1,1 -5,5 1.5,1.5 2,-2 1,1 -2,2 2.5,2.5 4,-4 1,1 -4,4 2,2 8,-8 z"
       transform="translate(0,288.53332)"
       id="path1091"
       inkscape:connector-curvature="0" />
    <path
       style="display:none;opacity:0.67600002;fill:none;fill-rule:evenodd;stroke:#5967df;stroke-width:0.1;stroke-linecap:butt;stroke-linejoin:miter;stroke-miterlimit:4;stroke-dasharray:none;stroke-opacity:1"
       d="m 32,304.53332 -16,-16 v 0 0 0"
       id="path1069"
       inkscape:connector-curvature="0"
       inkscape:label="x-line1" />
    <path
       style="display:none;opacity:0.67600002;fill:none;fill-rule:evenodd;stroke:#5967df;stroke-width:0.1;stroke-linecap:butt;stroke-linejoin:miter;stroke-miterlimit:4;stroke-dasharray:none;stroke-opacity:1"
       d="m 0,320.53332 32,-32 v 0 0 0"
       id="path1069-2"
       inkscape:connector-curvature="0"
       inkscape:label="x-line-2"
       sodipodi:nodetypes="ccccc" />
    <path
       style="display:none;fill:none;fill-rule:evenodd;stroke:#000000;stroke-width:0.1;stroke-linecap:butt;stroke-linejoin:miter;stroke-miterlimit:4;stroke-dasharray:none;stroke-opacity:1"
       d="m 8.8284271,311.70489 -5.6568542,5.65686"
       id="path825"
       inkscape:connector-curvature="0" />
    <path
       inkscape:connector-curvature="0"
       id="path827"
       d="m 8.828,317.36132 -5.656,-5.656"
       style="display:none;fill:none;fill-rule:evenodd;stroke:#000000;stroke-width:0.1;stroke-linecap:butt;stroke-linejoin:miter;stroke-miterlimit:4;stroke-dasharray:none;stroke-opacity:1"
       sodipodi:nodetypes="cc" />
  </g>
</svg>
